
<svg width="80" height="40" viewBox="0 0 80 40" fill="none" xmlns="http://www.w3.org/2000/svg">
<path d="M22 10H24V12H26V14H28V8H32V22H28V16H26V18H24V20H22V22H14V20H12V18H10V12H12V10H14V8H22V10ZM38 8V22H34V8H38ZM20 10H16V12H14V18H16V20H20V18H22V12H20V10ZM16 32H38V34H14V32H12V24H16V32Z" fill="#FFB200"/>
<path d="M56 20H58V22H54V20H52V18H48V20H46V22H42V20H44V18H46V16H48V12H42V10H48V8H52V10H58V12H52V16H54V18H56V20ZM64 22H60V8H64V14H66V8H70V22H66V16H64V22ZM44 28H66V26H44V24H70V30H48V32H70V34H46V32H44V28Z" fill="#277BC0"/>
</svg>
