<svg width="198" height="230" viewBox="0 0 198 230" fill="none" xmlns="http://www.w3.org/2000/svg">
<g style="mix-blend-mode:soft-light">
<path d="M163.029 116.794C160.72 115.298 158.495 113.416 156.182 111.422C152.015 107.865 147.716 104.192 142.634 102.72C145.931 97.9901 151.438 94.5883 156.755 91.2941C159.937 89.324 163.226 87.2861 165.959 85.0049C172.468 79.5731 197.624 55.0942 197.999 48.9405C198.022 48.5385 197.732 48.1828 197.323 48.111C190.134 46.8348 179.57 49.7501 171.858 51.8798C170.535 52.2467 169.282 52.5896 168.127 52.8927C165.386 53.6146 162.559 54.3444 159.686 55.0862C149.356 57.7582 138.693 60.518 129.122 63.4612C130.313 60.0793 131.624 56.3624 132.964 52.5737C134.575 48.0113 136.228 43.3373 137.753 38.9863C140.383 31.4926 143.689 22.7027 148.293 14.3317C148.474 13.9967 148.68 13.6338 148.899 13.2509C150.96 9.58586 154.113 4.05038 151.751 0.377348C151.534 0.0376024 151.089 -0.0936858 150.712 0.0702647C137.77 5.71741 125.157 15.225 113.475 24.6648C106.698 30.0474 100.346 35.913 94.4735 42.2126C93.6492 43.098 92.5362 44.6055 91.2379 46.3164C88.4144 50.0692 83.8185 56.167 81.1434 56.9885C78.9217 49.3234 79.136 39.6882 79.3462 30.3598C79.4616 25.1753 79.5729 20.2939 79.2762 15.8472C79.2576 15.5812 79.103 15.3418 78.864 15.2091C78.6274 15.0742 78.3368 15.0622 78.0891 15.1772C69.1652 19.3487 63.9345 37.746 61.4284 46.5876L61.3707 46.791C56.103 65.3515 51.1567 80.3189 45.8766 93.7587C37.8678 86.5802 21.7801 79.8243 10.9807 81.1125C10.7358 81.1436 10.5183 81.2796 10.3882 81.483C10.258 81.686 10.2289 81.9348 10.3089 82.1614C11.6114 85.6111 13.9608 89.0009 16.2361 92.2831C17.5675 94.2014 18.9483 96.1875 20.0695 98.1297C20.7455 99.3022 21.4008 100.479 22.0356 101.619C23.944 105.041 25.7453 108.275 28.169 111.57C29.4628 113.255 30.8601 114.863 32.3527 116.387C34.3188 118.481 36.3468 120.639 37.6823 122.999C32.9174 125.464 27.0478 127.307 20.8485 129.253C13.6476 131.514 6.19523 133.851 0.391621 137.309C0.174109 137.438 0.0311205 137.659 0.00449312 137.904C-0.0221342 138.15 0.0706079 138.394 0.255598 138.565C4.28267 142.254 14.0062 143.901 20.4528 144.994L22.3819 145.321C32.9833 147.191 53.7576 153.213 59.2768 154.836C55.9793 157.776 46.0167 166.681 44.0794 168.452C39.1332 172.986 22.9795 193.82 22.2953 194.705C22.0756 194.989 22.0756 195.379 22.2953 195.663C22.5142 195.946 22.9 196.057 23.2433 195.934C23.4906 195.846 47.3811 187.323 59.8168 181.577C59.0789 186.901 57.2076 192.344 55.394 197.605C53.3083 203.671 51.1484 209.944 50.7074 216.07C50.6913 216.291 50.7713 216.508 50.9275 216.67C51.0837 216.832 51.3026 216.923 51.5318 216.923C51.6155 216.923 51.6987 216.911 51.7791 216.887C63.8727 213.23 73.7941 202.347 81.7658 193.601L83.1136 192.125C85.7294 189.16 88.1889 186.069 90.4836 182.865C92.8784 179.63 95.3597 176.288 98.1132 173.329C99.1106 172.256 100.24 170.936 101.435 169.525C104.428 166.007 107.816 162.015 110.792 160.081C111.583 159.566 112.107 159.156 112.486 158.856C112.668 158.717 112.869 158.557 112.981 158.49C113.265 158.659 113.541 158.842 113.805 159.04C114.341 159.439 115.071 159.945 116.167 160.635C121.938 164.272 127.758 169.604 130.705 172.46C132.605 174.294 135.696 178.757 138.969 183.479C145.152 192.392 149.402 198.303 152.085 199.192C152.329 199.273 152.598 199.24 152.812 199.101C153.027 198.963 153.162 198.735 153.177 198.486C153.766 188.46 153.49 178.405 152.353 168.424C151.85 164.137 151.071 159.742 150.321 155.494C149.084 148.535 147.811 141.345 147.703 134.358C149.851 134.126 158.598 134.82 165.11 135.335C173.177 135.973 178.168 136.344 179.458 136.132C179.728 136.09 179.959 135.922 180.075 135.682C180.191 135.442 180.176 135.163 180.036 134.936C175.753 127.626 169.562 121.021 163.029 116.794Z" fill="#EAF3F3"/>
</g>
<path d="M130.828 73.5118C130.884 73.237 131.085 73.0109 131.357 72.916C133.411 72.2005 135.512 71.6191 137.634 71.1784C137.736 71.156 137.839 71.1321 137.975 71.1014C139.724 70.7014 140.327 70.6009 141.216 70.6543C142.471 70.7297 143.524 71.2498 144.413 72.3118C145.687 73.8384 146.532 75.8684 146.961 78.1408C147.208 79.4816 146.942 81.3951 146.241 82.4802C145.457 83.711 144.182 84.8033 142.341 85.9941C142.012 86.2067 141.669 86.4205 141.273 86.6606C141.118 86.7551 140.959 86.8504 140.762 86.968C140.692 87.0099 140.365 87.2053 140.277 87.2584C139.541 87.6983 138.921 88.0983 137.702 88.9055C137.569 88.994 137.569 88.994 137.435 89.0825C135.586 90.3077 134.61 90.9143 133.396 91.5456C131.459 92.5027 129.626 93.6453 127.925 94.9566C127.325 95.4196 126.454 94.9067 126.603 94.1781L130.828 73.5118Z" fill="#FBD2AE"/>
<path d="M136.138 120.746C141.557 119.836 151.659 116.827 153.601 114.879C155.5 113 156.205 110.425 156.177 106.929C156.169 105.929 156.115 105.034 155.986 103.463L155.945 102.964C155.633 99.659 154.986 96.4012 154.013 93.2287C152.883 89.3913 151.125 88.5159 146.27 88.7708C141.246 89.091 136.262 89.763 131.348 90.7812C130.922 90.8697 130.64 91.2641 130.706 91.6813L135.182 120.08C135.252 120.522 135.683 120.823 136.138 120.746Z" fill="#FBD2AE"/>
<path d="M154.026 101.782C152.777 101.941 151.331 102.11 149.604 102.299C148.323 102.439 147.022 102.577 145.033 102.784C139.479 103.361 138.361 103.48 136.288 103.727C135.837 103.781 135.515 104.179 135.571 104.616C135.626 105.053 136.038 105.364 136.489 105.31C138.55 105.065 139.667 104.947 145.209 104.37C147.201 104.162 148.505 104.025 149.79 103.884C151.526 103.694 152.981 103.524 154.242 103.363C154.693 103.305 155.01 102.905 154.951 102.468C154.891 102.031 154.477 101.724 154.026 101.782Z" fill="#FCB7A0"/>
<path d="M124.793 110.99C121.753 107.324 118.714 104.638 115.536 103.048C111.08 100.813 105.958 99.3738 101.243 99.2079C95.6191 99.0097 90.8146 100.595 87.3852 104.176C86.6354 104.96 86.0373 105.947 85.473 107.271L83.0857 99.7575C82.9125 99.2127 82.2217 99.0145 81.7691 99.3798C80.1905 100.655 77.9078 103.754 75.0719 108.237C73.1639 111.253 71.3457 114.344 69.5098 117.583C69.0395 118.415 68.556 119.345 68.0581 120.372C66.8331 122.9 65.5462 125.957 64.1275 129.634C63.4544 131.38 62.7767 133.198 61.9767 135.389C61.6457 136.295 60.4062 139.716 60.1239 140.488C56.1603 151.326 53.7783 163.204 51.1353 182.067C50.6168 185.773 50.1955 191.276 49.8592 198.109C49.6325 202.713 49.4577 217.615 49.3287 222.546C49.2834 224.272 49.2471 225.875 49.219 227.313C49.2092 227.817 49.2009 228.264 49.1943 228.649C49.1918 228.784 49.1906 228.863 49.1886 229.002C49.1869 229.102 49.1869 229.102 49.1865 229.123C49.1799 229.568 49.5505 229.932 50.01 229.932L115.519 230C115.975 230 116.344 229.643 116.344 229.202C116.344 212.229 117.277 180.167 118.931 172.67C120.258 166.67 122.682 159.308 125.419 152.713C126.703 149.61 128.233 146.253 130.293 141.941C130.911 141.848 131.525 141.731 132.134 141.59C135.069 140.889 135.932 140.67 137.443 140.197C143.296 138.364 146.81 135.761 147.436 131.543C147.945 128.114 146.322 123.49 143.798 121.148C141.988 119.469 139.474 119.031 136.135 119.414C135.139 119.528 134.169 119.696 132.764 119.978C132.552 120.021 131.849 120.164 131.75 120.184C131.609 120.212 131.481 120.238 131.362 120.262C128.798 116.246 126.961 113.605 124.793 110.99Z" fill="#FBD2AE"/>
<path d="M125.801 127.203C120.769 127.711 117.866 131.692 119.329 136.211C119.341 136.248 119.867 138.007 120.068 138.593C120.612 140.186 121.186 141.277 121.982 141.929C124.17 143.725 126.309 144.07 129.307 143.355C129.749 143.25 130.019 142.818 129.91 142.39C129.801 141.962 129.355 141.701 128.913 141.806C126.395 142.406 124.798 142.149 123.048 140.712C122.553 140.307 122.087 139.42 121.633 138.091C121.444 137.541 120.924 135.801 120.903 135.736C119.759 132.202 121.951 129.196 125.972 128.79C126.425 128.744 126.754 128.352 126.706 127.913C126.659 127.476 126.254 127.157 125.801 127.203Z" fill="#FCB7A0"/>
<path d="M121.736 129.531L121.734 129.532C117.478 130.254 105.055 130.859 99.5256 130.74C98.9605 130.728 98.3901 130.722 97.5756 130.717C97.4367 130.717 97.3258 130.716 97.0752 130.715C91.664 130.686 89.3697 130.5 86.8492 129.589C83.4318 128.354 81.2294 125.893 80.2773 121.823C79.2579 117.463 78.5296 112.767 77.8726 106.824C77.6273 104.607 77.5 103.321 77.0556 98.7015C76.9649 97.7567 76.9006 97.0911 76.8355 96.4302C76.256 90.5155 75.7329 83.985 74.9831 73.7216C75.054 74.6939 74.2758 63.9675 74.0677 61.1755C73.7783 57.2875 73.5302 54.109 73.2895 51.2455C72.6914 44.0323 72.6028 36.8182 73.5994 33.926C74.8125 30.315 78.0746 27.7087 81.9483 27.242C91.7955 25.8129 104.171 24.7322 110.735 24.8645C111.322 24.8764 111.842 24.8815 112.969 24.8887C116.293 24.9101 117.842 24.9485 119.8 25.1037C126 25.5953 130.329 27.1338 132.818 30.4413C134.175 32.2478 134.978 34.8568 135.48 38.3735C135.605 39.2541 135.71 40.1742 135.812 41.2414C135.851 41.6506 135.888 42.0621 135.933 42.5953C135.925 42.4972 136.018 43.5824 136.042 43.8588C136.073 44.2045 136.099 44.4925 136.126 44.7597C136.146 44.9722 136.146 44.9722 136.166 45.1844C136.994 53.9407 137.018 54.1931 137.36 57.4642C137.594 59.6923 137.824 61.7534 138.061 63.7223C140.216 81.3608 141.507 96.2392 141.99 110.67C142.21 117.183 141.206 121.611 137.716 124.511C136.06 125.88 133.363 126.977 129.825 127.901C128.368 128.281 126.83 128.616 125.162 128.93C124.534 129.048 123.916 129.159 123.218 129.279C122.932 129.328 121.939 129.496 121.736 129.531Z" fill="#1A4E66"/>
<path d="M119.905 126.202C115.019 126.727 110.103 126.958 105.186 126.896C98.01 126.744 91.9715 127.669 90.0218 119.338C88.2865 111.92 87.6476 102.313 86.9016 94.7118C85.6897 82.3487 84.717 65.1999 83.6741 52.773C83.3938 49.423 82.5818 37.9093 83.9214 34.8903C85.2611 31.8714 88.5462 30.9342 90.908 30.5034C96.5839 29.4426 103.5 28.6171 109.992 28.7487C115.899 28.8683 125.561 28.2741 129.501 33.5344C131.818 36.6212 132.011 44.1587 132.387 47.8078C132.947 53.4828 133.471 59.3334 134.175 65.0922C135.907 79.2659 137.267 95.4017 137.749 109.759C137.885 113.747 137.625 118.876 134.118 121.787C130.841 124.495 122.737 125.867 119.905 126.202Z" fill="white"/>
<path d="M80.7469 29.653C78.728 30.9593 78.0792 34.2882 78.1711 39.5433C78.1942 40.8769 78.2602 42.1946 78.3809 44.0259C78.3978 44.2855 78.4704 45.3643 78.4881 45.6327C78.5256 46.2054 78.5508 46.6301 78.5681 47.0026C78.7305 50.41 78.9765 54.3626 79.3521 59.8152C79.4048 60.5829 79.4609 61.3861 79.5248 62.2997C79.5668 62.9016 79.8178 66.4793 79.8879 67.4843C80.0231 69.4201 80.1265 70.938 80.2176 72.3254C81.0659 85.3792 82.3482 99.3049 84.0662 114.734C84.5374 118.997 85.5217 122.99 87.0097 125.782C87.2187 126.173 87.7158 126.327 88.1205 126.125C88.5249 125.923 88.684 125.442 88.475 125.05C87.0987 122.468 86.1569 118.648 85.7059 114.563C83.99 99.1557 82.7097 85.2532 81.8631 72.2245C81.7716 70.8343 81.6681 69.3148 81.5329 67.377C81.4629 66.3712 81.2118 62.7935 81.1698 62.1921C81.1059 61.2788 81.0499 60.476 80.9971 59.7091C80.6224 54.2665 80.3772 50.3231 80.2152 46.9296C80.197 46.5464 80.1715 46.1133 80.1336 45.5322C80.1158 45.2618 80.0433 44.1822 80.0264 43.9246C79.9073 42.116 79.8421 40.8195 79.8195 39.5166C79.7383 34.8457 80.3223 31.8467 81.6636 30.9789C82.042 30.734 82.1434 30.2388 81.8903 29.8726C81.6372 29.5064 81.1253 29.4081 80.7469 29.653Z" fill="#0D323F"/>
<path d="M70.2134 142.923C69.5889 142.909 69.2073 142.255 69.5172 141.73C70.5869 139.921 71.804 138.006 73.3122 135.736C73.9318 134.803 74.5744 133.849 75.4288 132.589C75.7017 132.187 76.7021 130.715 76.6225 130.832C77.1007 130.128 77.4568 129.602 77.8026 129.09C78.6851 127.782 79.406 126.697 80.0701 125.674C85.2368 117.711 90.6159 111.359 96.415 106.984C99.7364 104.479 103.675 105.124 106.168 108.536C107.474 110.32 107.535 112.343 106.667 114.75C106.326 115.696 105.907 116.575 105.164 117.987C104.204 119.808 104.207 119.803 103.934 120.405C102.94 122.593 102.301 126.362 102.16 129.873C102.102 131.373 102.282 133.084 102.676 135.03C102.981 136.54 103.393 138.11 103.972 140.055C104.093 140.462 104.218 140.876 104.376 141.393C104.418 141.529 104.689 142.413 104.765 142.662C104.923 143.181 104.514 143.698 103.955 143.685L70.2134 142.923Z" fill="#FBD2AE"/>
<path d="M77.209 57.1935C77.0516 54.9601 76.9333 52.7447 76.8562 50.568C76.8405 50.1278 76.4588 49.7832 76.0038 49.7983C75.5491 49.8135 75.1926 50.1828 75.2083 50.6231C75.2862 52.8177 75.4057 55.0511 75.5644 57.3019C75.5953 57.7414 75.9885 58.0736 76.4428 58.0433C76.897 58.0134 77.2403 57.6329 77.209 57.1935Z" fill="#0D323F"/>
<path d="M78.0446 68.1775C77.8401 66.0431 77.6814 63.777 77.5607 61.3491C77.5388 60.9092 77.1522 60.5694 76.6975 60.5905C76.2429 60.6117 75.8917 60.9858 75.9136 61.4256C76.0356 63.8759 76.1963 66.1651 76.4028 68.3242C76.4445 68.7629 76.8459 69.0856 77.2993 69.0449C77.7527 69.0046 78.0862 68.6162 78.0446 68.1775Z" fill="#0D323F"/>
<path d="M101.979 131.526C102.249 134.26 102.915 136.406 104.251 139.506C104.324 139.677 104.399 139.849 104.5 140.081C104.562 140.223 104.562 140.223 104.623 140.363C104.684 140.504 104.709 140.561 104.745 140.644C104.939 141.091 105.08 141.42 105.213 141.741C105.382 142.15 105.861 142.348 106.284 142.185C106.707 142.021 106.912 141.557 106.743 141.147C106.606 140.817 106.462 140.481 106.265 140.026C106.229 139.943 106.204 139.885 106.143 139.744C106.081 139.603 106.081 139.603 106.019 139.461C105.919 139.231 105.845 139.061 105.773 138.893C104.495 135.927 103.871 133.918 103.62 131.374C103.577 130.936 103.175 130.614 102.721 130.656C102.268 130.698 101.936 131.087 101.979 131.526Z" fill="#FCB7A0"/>
<path d="M70.2435 140.556C71.2909 138.785 72.4866 136.903 73.9705 134.67C74.5884 133.74 75.2297 132.788 76.0846 131.528C76.3579 131.126 77.3554 129.658 77.2832 129.764C77.7634 129.057 78.1225 128.528 78.4703 128.011C79.3611 126.692 80.0898 125.596 80.7617 124.56C81.0037 124.187 80.8874 123.694 80.5016 123.46C80.1162 123.226 79.6072 123.339 79.3652 123.712C78.6991 124.738 77.9757 125.827 77.0899 127.14C76.7429 127.654 76.3851 128.182 75.9053 128.888C75.9778 128.781 74.9799 130.25 74.7062 130.653C73.8489 131.916 73.2046 132.873 72.5835 133.807C71.0856 136.062 69.8758 137.965 68.8124 139.764C68.5865 140.146 68.7233 140.634 69.1186 140.852C69.5139 141.071 70.0176 140.938 70.2435 140.556Z" fill="#FCB7A0"/>
<path d="M104.483 163.865C105.327 164.052 106.154 164.306 106.956 164.623C107.377 164.79 107.858 164.595 108.031 164.188C108.203 163.78 108.002 163.314 107.58 163.147C106.696 162.797 105.783 162.517 104.851 162.31C104.407 162.212 103.965 162.48 103.864 162.909C103.762 163.339 104.039 163.767 104.483 163.865Z" fill="#FCB7A0"/>
<path d="M98.1915 106.887C100.195 106.118 102.643 106.533 103.871 108.511C104.881 110.138 103.892 112.331 102.763 113.536C101.242 115.159 99.9309 114.963 97.734 114.142C96.6128 113.743 94.9352 112.945 93.8924 111.96C93.5078 111.602 93.4167 111.039 93.6698 110.584C94.6578 108.858 96.267 107.542 98.1915 106.887Z" fill="#0B62AA"/>
<path d="M125.915 130.816C124.37 131.53 122.849 132.611 122.688 134.373C122.544 135.997 123.265 138.549 124.708 139.111C125.989 139.61 127.749 139.55 129.349 139.343C129.913 139.239 130.466 139.08 130.998 138.868C131.496 138.687 131.844 138.245 131.892 137.731C131.991 136.886 131.971 136.031 131.83 135.191C131.5 133.66 130.808 131.582 129.621 130.565C129.26 130.261 128.777 130.129 128.306 130.206C127.492 130.34 126.691 130.544 125.915 130.816Z" fill="#0B62AA"/>
<path d="M93.8401 69.1436C94.8281 75.5429 99.0373 80.1583 105.578 80.9583C115.039 82.112 122.755 79.2689 125.452 71.8327C127.618 65.8578 126.655 58.8391 122.785 54.1272C120.744 51.6526 116.943 49.7495 112.82 49.2545C108.035 48.6799 103.255 49.9808 99.2562 53.3176C95.0094 56.8582 92.9234 63.2077 93.8401 69.1436Z" fill="#EEA702"/>
<path fill-rule="evenodd" clip-rule="evenodd" d="M104.775 72.3008L104.697 72.3937C104.411 72.7359 103.892 72.789 103.538 72.5118C103.184 72.2346 103.129 71.7321 103.416 71.3899L103.493 71.2974L103.712 71.0354C103.948 70.7534 104.211 70.4392 104.494 70.1002C105.302 69.1327 106.111 68.164 106.866 67.2587L106.885 67.2355C107.506 66.4906 108.057 65.8285 108.527 65.2634C107.21 64.2624 105.835 63.2116 104.464 62.1607C103.896 61.7248 103.369 61.32 102.896 60.9567C102.731 60.8295 102.584 60.7162 102.458 60.6189L102.302 60.4996C101.946 60.2253 101.887 59.7232 102.171 59.3786C102.455 59.034 102.973 58.977 103.329 59.2518L103.484 59.3706C103.61 59.4679 103.757 59.5804 103.922 59.7076C104.394 60.0705 104.92 60.4749 105.488 60.9104C106.862 61.9633 108.24 63.0161 109.557 64.0187C109.717 63.8257 109.853 63.6602 109.963 63.525C110.785 62.5176 111.64 61.5322 112.897 60.1236C113.049 59.9537 113.203 59.781 113.411 59.5485C113.667 59.2621 113.803 59.1106 113.923 58.9774C114.334 58.5176 114.636 58.1778 114.93 57.8456C115.226 57.511 115.746 57.4715 116.092 57.7578C116.438 58.0442 116.479 58.5475 116.183 58.8825C115.887 59.2175 115.582 59.5593 115.169 60.0215C115.049 60.1551 114.913 60.307 114.657 60.593C114.45 60.8247 114.296 60.997 114.145 61.1661C112.902 62.5587 112.061 63.5286 111.257 64.5141C111.146 64.6489 111.012 64.8128 110.855 65.0038C114.236 67.5669 116.545 69.2766 117.235 69.7121C117.617 69.9526 117.724 70.4468 117.476 70.8157C117.227 71.1849 116.716 71.289 116.335 71.0486C115.583 70.5748 113.275 68.8647 109.823 66.2485C109.351 66.8176 108.795 67.4852 108.169 68.2369L108.149 68.2605C107.394 69.1662 106.585 70.1353 105.776 71.1032C105.493 71.4422 105.23 71.7568 104.994 72.0388L104.775 72.3008Z" fill="white"/>
<path d="M134.619 16.8787C134.596 16.8532 134.575 16.8263 134.556 16.7982C133.549 15.3269 133.391 6.13767 134.219 4.28815C134.93 2.69698 137.742 2.71728 139.158 3.6765C140.11 4.32209 140.278 6.52766 140.058 10.0344C139.888 12.755 139.478 15.5229 139.102 16.3043C138.381 17.8422 136.016 18.2206 134.836 17.0913C134.759 17.0251 134.687 16.9541 134.619 16.8787Z" fill="#80A3AF"/>
<path d="M133.5 22.253C133.453 23.4843 134.314 24.9816 135.461 25.4449C138.335 26.6065 140.885 23.1764 139.164 20.7836C137.546 18.5473 133.613 19.4566 133.5 22.253Z" fill="#80A3AF"/>
<path d="M144.669 22.6189C143.774 20.8234 145.05 10.3857 146.268 8.43239C147.28 6.80924 150.392 7.23784 151.829 8.50175C152.754 9.34052 152.592 11.8808 151.799 15.7716C151.174 18.8329 150.268 21.911 149.723 22.7277C148.676 24.3233 146.004 24.3986 144.892 22.9698C144.804 22.8592 144.729 22.74 144.669 22.6189Z" fill="#5F7982"/>
<path d="M149.051 27.9572C147.62 25.2627 143.149 25.6991 142.601 28.7558C142.358 30.1006 143.08 31.8848 144.265 32.5588C147.239 34.2649 150.578 30.8539 149.052 27.9594L149.051 27.9572Z" fill="#5F7982"/>
</svg>
