<svg width="48" height="48" viewBox="0 0 48 48" fill="none" xmlns="http://www.w3.org/2000/svg">
<path d="M24 4C35.046 4 44 12.954 44 24C44 35.046 35.046 44 24 44C12.954 44 4 35.046 4 24C4 12.954 12.954 4 24 4ZM24 14C23.6375 14 23.2873 14.1313 23.0141 14.3695C22.741 14.6078 22.5633 14.9369 22.514 15.296L22.5 15.5V22.5H15.5C15.12 22.5001 14.7541 22.6445 14.4764 22.9039C14.1987 23.1634 14.0299 23.5186 14.0039 23.8978C13.978 24.2769 14.097 24.6518 14.3369 24.9466C14.5767 25.2414 14.9195 25.4342 15.296 25.486L15.5 25.5H22.5V32.5C22.5001 32.88 22.6445 33.2459 22.9039 33.5236C23.1634 33.8013 23.5186 33.9701 23.8978 33.9961C24.2769 34.022 24.6518 33.903 24.9466 33.6631C25.2414 33.4233 25.4342 33.0805 25.486 32.704L25.5 32.5V25.5H32.5C32.88 25.4999 33.2459 25.3555 33.5236 25.0961C33.8013 24.8366 33.9701 24.4814 33.9961 24.1022C34.022 23.7231 33.903 23.3482 33.6631 23.0534C33.4233 22.7586 33.0805 22.5658 32.704 22.514L32.5 22.5H25.5V15.5C25.5 15.1022 25.342 14.7206 25.0607 14.4393C24.7794 14.158 24.3978 14 24 14Z" fill="#0B62AA"/>
</svg>
