<svg width="48" height="48" viewBox="0 0 48 48" fill="none" xmlns="http://www.w3.org/2000/svg">
<path d="M15.8791 4.908C15.3167 5.47058 15.0007 6.23351 15.0007 7.029C15.0007 7.82449 15.3167 8.58742 15.8791 9.15L30.7291 24L15.8791 38.85C15.3326 39.4158 15.0302 40.1736 15.0371 40.9602C15.0439 41.7468 15.3594 42.4992 15.9156 43.0555C16.4719 43.6117 17.2243 43.9272 18.0109 43.934C18.7975 43.9409 19.5553 43.6385 20.1211 43.092L37.0921 26.121C37.6545 25.5584 37.9705 24.7955 37.9705 24C37.9705 23.2045 37.6545 22.4416 37.0921 21.879L20.1211 4.908C19.5585 4.34559 18.7956 4.02964 18.0001 4.02964C17.2046 4.02964 16.4417 4.34559 15.8791 4.908V4.908Z" fill="#0B62AA"/>
</svg>
