<svg width="48" height="48" viewBox="0 0 48 48" fill="none" xmlns="http://www.w3.org/2000/svg">
<path d="M4.9079 15.879C5.47048 15.3166 6.23341 15.0006 7.0289 15.0006C7.82439 15.0006 8.58732 15.3166 9.1499 15.879L23.9999 30.729L38.8499 15.879C39.4157 15.3325 40.1735 15.0301 40.9601 15.037C41.7467 15.0438 42.4991 15.3593 43.0554 15.9155C43.6116 16.4718 43.9271 17.2242 43.9339 18.0108C43.9408 18.7974 43.6384 19.5552 43.0919 20.121L26.1209 37.092C25.5583 37.6544 24.7954 37.9704 23.9999 37.9704C23.2044 37.9704 22.4415 37.6544 21.8789 37.092L4.9079 20.121C4.34549 19.5584 4.02954 18.7955 4.02954 18C4.02954 17.2045 4.34549 16.4416 4.9079 15.879V15.879Z" fill="#0B62AA"/>
</svg>
