<svg width="48" height="48" viewBox="0 0 48 48" fill="none" xmlns="http://www.w3.org/2000/svg">
<path d="M32.1209 4.908C32.6833 5.47058 32.9993 6.23351 32.9993 7.029C32.9993 7.82449 32.6833 8.58742 32.1209 9.15L17.2709 24L32.1209 38.85C32.6674 39.4158 32.9698 40.1736 32.9629 40.9602C32.9561 41.7468 32.6406 42.4992 32.0844 43.0555C31.5281 43.6117 30.7757 43.9272 29.9891 43.934C29.2025 43.9409 28.4447 43.6385 27.8789 43.092L10.9079 26.121C10.3455 25.5584 10.0295 24.7955 10.0295 24C10.0295 23.2045 10.3455 22.4416 10.9079 21.879L27.8789 4.908C28.4415 4.34559 29.2044 4.02964 29.9999 4.02964C30.7954 4.02964 31.5583 4.34559 32.1209 4.908V4.908Z" fill="#0B62AA"/>
</svg>
