<svg width="48" height="48" viewBox="0 0 48 48" fill="none" xmlns="http://www.w3.org/2000/svg">
<path d="M4.9079 32.121C5.47048 32.6834 6.23341 32.9994 7.0289 32.9994C7.82439 32.9994 8.58732 32.6834 9.1499 32.121L23.9999 17.271L38.8499 32.121C39.4157 32.6675 40.1735 32.9699 40.9601 32.963C41.7467 32.9562 42.4991 32.6407 43.0554 32.0845C43.6116 31.5282 43.9271 30.7758 43.9339 29.9892C43.9408 29.2026 43.6384 28.4448 43.0919 27.879L26.1209 10.908C25.5583 10.3456 24.7954 10.0296 23.9999 10.0296C23.2044 10.0296 22.4415 10.3456 21.8789 10.908L4.9079 27.879C4.34549 28.4416 4.02954 29.2045 4.02954 30C4.02954 30.7955 4.34549 31.5584 4.9079 32.121V32.121Z" fill="#0B62AA"/>
</svg>
