<svg width="48" height="48" viewBox="0 0 48 48" fill="none" xmlns="http://www.w3.org/2000/svg">
<path d="M28.5 39C28.5 40.1935 28.0259 41.3381 27.182 42.182C26.3381 43.0259 25.1935 43.5 24 43.5C22.8065 43.5 21.6619 43.0259 20.818 42.182C19.9741 41.3381 19.5 40.1935 19.5 39C19.5 37.8065 19.9741 36.6619 20.818 35.818C21.6619 34.9741 22.8065 34.5 24 34.5C25.1935 34.5 26.3381 34.9741 27.182 35.818C28.0259 36.6619 28.5 37.8065 28.5 39ZM28.5 24C28.5 25.1935 28.0259 26.3381 27.182 27.182C26.3381 28.0259 25.1935 28.5 24 28.5C22.8065 28.5 21.6619 28.0259 20.818 27.182C19.9741 26.3381 19.5 25.1935 19.5 24C19.5 22.8065 19.9741 21.6619 20.818 20.818C21.6619 19.9741 22.8065 19.5 24 19.5C25.1935 19.5 26.3381 19.9741 27.182 20.818C28.0259 21.6619 28.5 22.8065 28.5 24V24ZM28.5 9C28.5 10.1935 28.0259 11.3381 27.182 12.182C26.3381 13.0259 25.1935 13.5 24 13.5C22.8065 13.5 21.6619 13.0259 20.818 12.182C19.9741 11.3381 19.5 10.1935 19.5 9C19.5 7.80653 19.9741 6.66193 20.818 5.81802C21.6619 4.97411 22.8065 4.5 24 4.5C25.1935 4.5 26.3381 4.97411 27.182 5.81802C28.0259 6.66193 28.5 7.80653 28.5 9V9Z" fill="#0B62AA"/>
</svg>
