<svg width="48" height="48" viewBox="0 0 48 48" fill="none" xmlns="http://www.w3.org/2000/svg">
<path d="M24 18.708L21.318 13.341C20.652 12.012 19.497 10.101 17.862 8.556C16.254 7.035 14.328 6 12 6C6.972 6 3 9.978 3 14.76C3 18.393 4.662 20.958 8.604 24.87C9.615 25.872 10.767 26.955 12.042 28.149C15.366 31.269 19.5 35.151 24 40.341C28.5 35.151 32.634 31.269 35.958 28.149C37.233 26.955 38.388 25.869 39.396 24.87C43.338 20.958 45 18.393 45 14.76C45 9.978 41.028 6 36 6C33.669 6 31.746 7.035 30.138 8.556C28.503 10.101 27.348 12.012 26.682 13.341L24 18.708ZM25.176 43.584C25.0315 43.7551 24.8515 43.8927 24.6483 43.987C24.4452 44.0814 24.224 44.1303 24 44.1303C23.776 44.1303 23.5548 44.0814 23.3517 43.987C23.1485 43.8927 22.9685 43.7551 22.824 43.584C18.021 37.878 13.674 33.798 10.095 30.441C3.9 24.624 0 20.967 0 14.76C0 8.265 5.37 3 12 3C16.8 3 20.157 6.15 22.212 9.024C22.992 10.119 23.586 11.172 24 12C24.519 10.9637 25.1167 9.96879 25.788 9.024C27.843 6.147 31.2 3 36 3C42.63 3 48 8.265 48 14.76C48 20.967 44.1 24.624 37.905 30.441C34.326 33.801 29.979 37.881 25.176 43.581V43.584Z" fill="#0B62AA"/>
</svg>
