<svg width="48" height="48" viewBox="0 0 48 48" fill="none" xmlns="http://www.w3.org/2000/svg">
<path d="M4.7999 4.8H43.1999C44.5199 4.8 45.5999 5.88 45.5999 7.2V40.8C45.5999 42.12 44.5199 43.2 43.1999 43.2H4.7999C3.4799 43.2 2.3999 42.12 2.3999 40.8V7.2C2.3999 5.88 3.4799 4.8 4.7999 4.8ZM40.7999 38.4V16.8H7.1999V38.4H40.7999ZM9.5999 19.2V21.6H16.7999V19.2H9.5999ZM19.1999 19.2V26.4H38.3999V19.2H19.1999ZM9.5999 28.8V31.2H16.7999V28.8H9.5999ZM19.1999 28.8V36H38.3999V28.8H19.1999Z" fill="#0B62AA"/>
</svg>
