<svg width="48" height="48" viewBox="0 0 48 48" fill="none" xmlns="http://www.w3.org/2000/svg">
<path d="M45 42C45 42 48 42 48 39C48 36 45 27 33 27C21 27 18 36 18 39C18 42 21 42 21 42H45ZM21.066 39C21.0438 38.9969 21.0218 38.9929 21 38.988C21.003 38.196 21.501 35.898 23.28 33.828C24.936 31.887 27.846 30 33 30C38.151 30 41.061 31.89 42.72 33.828C44.499 35.898 44.994 38.199 45 38.988L44.976 38.994C44.9621 38.9964 44.948 38.9984 44.934 39H21.066V39ZM33 21C34.5913 21 36.1174 20.3679 37.2426 19.2426C38.3679 18.1174 39 16.5913 39 15C39 13.4087 38.3679 11.8826 37.2426 10.7574C36.1174 9.63214 34.5913 9 33 9C31.4087 9 29.8826 9.63214 28.7574 10.7574C27.6321 11.8826 27 13.4087 27 15C27 16.5913 27.6321 18.1174 28.7574 19.2426C29.8826 20.3679 31.4087 21 33 21ZM42 15C42 16.1819 41.7672 17.3522 41.3149 18.4442C40.8626 19.5361 40.1997 20.5282 39.364 21.364C38.5282 22.1997 37.5361 22.8626 36.4442 23.3149C35.3522 23.7672 34.1819 24 33 24C31.8181 24 30.6478 23.7672 29.5558 23.3149C28.4639 22.8626 27.4718 22.1997 26.636 21.364C25.8003 20.5282 25.1374 19.5361 24.6851 18.4442C24.2328 17.3522 24 16.1819 24 15C24 12.6131 24.9482 10.3239 26.636 8.63604C28.3239 6.94821 30.6131 6 33 6C35.3869 6 37.6761 6.94821 39.364 8.63604C41.0518 10.3239 42 12.6131 42 15V15ZM20.808 27.84C19.6079 27.4621 18.3709 27.2137 17.118 27.099C16.414 27.0321 15.7072 26.999 15 27C3 27 0 36 0 39C0 41.001 0.999 42 3 42H15.648C15.2033 41.0634 14.9815 40.0366 15 39C15 35.97 16.131 32.874 18.27 30.288C18.999 29.406 19.848 28.581 20.808 27.84ZM14.76 30C12.9845 32.6678 12.0253 35.7955 12 39H3C3 38.22 3.492 35.91 5.28 33.828C6.915 31.92 9.756 30.06 14.76 30.003V30ZM4.5 16.5C4.5 14.1131 5.44821 11.8239 7.13604 10.136C8.82387 8.44821 11.1131 7.5 13.5 7.5C15.8869 7.5 18.1761 8.44821 19.864 10.136C21.5518 11.8239 22.5 14.1131 22.5 16.5C22.5 18.8869 21.5518 21.1761 19.864 22.864C18.1761 24.5518 15.8869 25.5 13.5 25.5C11.1131 25.5 8.82387 24.5518 7.13604 22.864C5.44821 21.1761 4.5 18.8869 4.5 16.5V16.5ZM13.5 10.5C11.9087 10.5 10.3826 11.1321 9.25736 12.2574C8.13214 13.3826 7.5 14.9087 7.5 16.5C7.5 18.0913 8.13214 19.6174 9.25736 20.7426C10.3826 21.8679 11.9087 22.5 13.5 22.5C15.0913 22.5 16.6174 21.8679 17.7426 20.7426C18.8679 19.6174 19.5 18.0913 19.5 16.5C19.5 14.9087 18.8679 13.3826 17.7426 12.2574C16.6174 11.1321 15.0913 10.5 13.5 10.5Z" fill="#0B62AA"/>
</svg>
