<svg width="48" height="48" viewBox="0 0 48 48" fill="none" xmlns="http://www.w3.org/2000/svg">
<path d="M44.3673 23.6719L26.2548 5.56875L25.0407 4.35469C24.7641 4.07989 24.39 3.92567 24.0001 3.92567C23.6102 3.92567 23.2361 4.07989 22.9595 4.35469L3.63291 23.6719C3.34946 23.9542 3.12545 24.2905 2.97409 24.6608C2.82273 25.0312 2.7471 25.4281 2.75166 25.8281C2.77041 27.4781 4.14385 28.7953 5.79385 28.7953H7.78603V44.0625H40.2142V28.7953H42.2485C43.0501 28.7953 43.8048 28.4813 44.372 27.9141C44.6513 27.6357 44.8725 27.3047 45.023 26.9402C45.1735 26.5757 45.2501 26.185 45.2485 25.7906C45.2485 24.9938 44.9345 24.2391 44.3673 23.6719V23.6719ZM26.6251 40.6875H21.3751V31.125H26.6251V40.6875ZM36.8392 25.4203V40.6875H29.6251V30C29.6251 28.9641 28.786 28.125 27.7501 28.125H20.2501C19.2142 28.125 18.3751 28.9641 18.3751 30V40.6875H11.161V25.4203H6.66103L24.0048 8.09063L25.0876 9.17344L41.3438 25.4203H36.8392Z" fill="#0B62AA"/>
</svg>
