<svg width="48" height="48" viewBox="0 0 48 48" fill="none" xmlns="http://www.w3.org/2000/svg">
<path d="M24 17.7516C20.5594 17.7516 17.7515 20.5594 17.7515 24C17.7515 27.4406 20.5594 30.2484 24 30.2484C27.4406 30.2484 30.2484 27.4406 30.2484 24C30.2484 20.5594 27.4406 17.7516 24 17.7516ZM42.7406 24C42.7406 21.4125 42.764 18.8484 42.6187 16.2656C42.4734 13.2656 41.789 10.6031 39.5953 8.40938C37.3969 6.21094 34.739 5.53125 31.739 5.38594C29.1515 5.24063 26.5875 5.26406 24.0047 5.26406C21.4172 5.26406 18.8531 5.24063 16.2703 5.38594C13.2703 5.53125 10.6078 6.21563 8.41404 8.40938C6.2156 10.6078 5.53592 13.2656 5.3906 16.2656C5.24529 18.8531 5.26873 21.4172 5.26873 24C5.26873 26.5828 5.24529 29.1516 5.3906 31.7344C5.53592 34.7344 6.22029 37.3969 8.41404 39.5906C10.6125 41.7891 13.2703 42.4687 16.2703 42.6141C18.8578 42.7594 21.4219 42.7359 24.0047 42.7359C26.5922 42.7359 29.1562 42.7594 31.739 42.6141C34.739 42.4687 37.4015 41.7844 39.5953 39.5906C41.7937 37.3922 42.4734 34.7344 42.6187 31.7344C42.7687 29.1516 42.7406 26.5875 42.7406 24V24ZM24 33.6141C18.6797 33.6141 14.3859 29.3203 14.3859 24C14.3859 18.6797 18.6797 14.3859 24 14.3859C29.3203 14.3859 33.614 18.6797 33.614 24C33.614 29.3203 29.3203 33.6141 24 33.6141ZM34.0078 16.2375C32.7656 16.2375 31.7625 15.2344 31.7625 13.9922C31.7625 12.75 32.7656 11.7469 34.0078 11.7469C35.25 11.7469 36.2531 12.75 36.2531 13.9922C36.2535 14.2872 36.1956 14.5793 36.0829 14.8519C35.9702 15.1245 35.8049 15.3721 35.5963 15.5807C35.3877 15.7893 35.1401 15.9546 34.8675 16.0673C34.5949 16.18 34.3028 16.2379 34.0078 16.2375V16.2375Z" fill="#0B62AA"/>
</svg>
