<svg width="40" height="40" viewBox="0 0 40 40" fill="none" xmlns="http://www.w3.org/2000/svg">
<path d="M36.875 0H3.125C1.39833 0 0 1.4 0 3.125V36.875C0 38.6017 1.4 40 3.125 40H36.875C38.6017 40 40 38.6 40 36.875V3.125C40 1.39833 38.6 0 36.875 0ZM20 31.25C19.015 31.25 18.05 31.1817 17.1133 31.05C16.1767 31.71 10.7583 35.515 10.2467 35.5867C10.2467 35.5867 10.0383 35.6683 9.86 35.5633C9.68167 35.4583 9.71333 35.1817 9.71333 35.1817C9.76667 34.815 11.1183 30.1517 11.3667 29.2933C6.79167 27.0267 3.75 23.0117 3.75 18.4383C3.75 11.3617 11.025 5.625 20 5.625C28.975 5.625 36.25 11.3617 36.25 18.4383C36.25 25.5133 28.975 31.25 20 31.25ZM13.4167 16.445H11.9533V22.015C11.9533 22.5083 11.5333 22.91 11.015 22.91C10.4967 22.91 10.0783 22.51 10.0783 22.015V16.445H8.615C8.38336 16.4279 8.16677 16.3238 8.0087 16.1536C7.85063 15.9834 7.76278 15.7598 7.76278 15.5275C7.76278 15.2952 7.85063 15.0716 8.0087 14.9014C8.16677 14.7312 8.38336 14.6271 8.615 14.61H13.415C13.6466 14.6271 13.8632 14.7312 14.0213 14.9014C14.1794 15.0716 14.2672 15.2952 14.2672 15.5275C14.2672 15.7598 14.1794 15.9834 14.0213 16.1536C13.8632 16.3238 13.6466 16.4279 13.415 16.445H13.4167ZM31.7283 21.3733C31.8032 21.4713 31.8578 21.5833 31.889 21.7026C31.9202 21.8219 31.9273 21.9462 31.91 22.0683C31.8929 22.1901 31.8518 22.3073 31.7892 22.4132C31.7265 22.519 31.6435 22.6114 31.545 22.685C31.3831 22.8084 31.1852 22.8751 30.9817 22.875C30.8362 22.8758 30.6925 22.8424 30.5622 22.7776C30.432 22.7127 30.3188 22.6182 30.2317 22.5017L28.0333 19.59L27.7083 19.915V21.96C27.7079 22.2084 27.6091 22.4466 27.4336 22.6224C27.2581 22.7983 27.0201 22.8975 26.7717 22.8983C26.5228 22.8983 26.2841 22.7995 26.1082 22.6235C25.9322 22.4475 25.8333 22.2089 25.8333 21.96V15.5467C25.8435 15.3049 25.9468 15.0764 26.1215 14.9089C26.2962 14.7414 26.5288 14.6479 26.7708 14.6479C27.0128 14.6479 27.2455 14.7414 27.4202 14.9089C27.5949 15.0764 27.6981 15.3049 27.7083 15.5467V17.5633L30.325 14.9467C30.3933 14.8792 30.4743 14.826 30.5632 14.7899C30.6522 14.7539 30.7474 14.7358 30.8433 14.7367C31.0767 14.7367 31.3133 14.8383 31.49 15.015C31.6509 15.1727 31.7486 15.3837 31.765 15.6083C31.7736 15.7129 31.7597 15.8181 31.724 15.9167C31.6883 16.0154 31.6318 16.1052 31.5583 16.18L29.4217 18.315L31.73 21.3733H31.7283ZM17.8117 15.5367C17.6533 15.0867 17.1733 14.6233 16.5617 14.61C15.9517 14.6233 15.4717 15.0867 15.3133 15.535L13.0717 21.4367C12.7867 22.32 13.035 22.65 13.2933 22.77C13.4801 22.855 13.6831 22.8988 13.8883 22.8983C14.28 22.8983 14.5783 22.74 14.6683 22.485L15.1333 21.2683H17.9917L18.4567 22.485C18.5467 22.74 18.845 22.8983 19.2367 22.8983C19.442 22.8981 19.6449 22.8538 19.8317 22.7683C20.09 22.65 20.3383 22.3217 20.0533 21.435L17.8117 15.535V15.5367ZM15.6267 19.6083L16.5633 16.9483L17.4983 19.6083H15.6267ZM25.4683 21.9133C25.4631 22.1464 25.3655 22.368 25.1971 22.5292C25.0287 22.6904 24.8031 22.7782 24.57 22.7733H21.5633C21.4478 22.776 21.3328 22.7558 21.225 22.7141C21.1172 22.6723 21.0187 22.6097 20.9352 22.5298C20.8516 22.4499 20.7846 22.3544 20.7379 22.2486C20.6913 22.1428 20.6659 22.0289 20.6633 21.9133V15.5467C20.6633 15.03 21.0933 14.61 21.6217 14.61C22.15 14.61 22.5783 15.03 22.5783 15.5467V21.055H24.57C25.065 21.055 25.47 21.44 25.47 21.9133H25.4683Z" fill="#0B62AA"/>
</svg>
