<svg width="48" height="48" viewBox="0 0 48 48" fill="none" xmlns="http://www.w3.org/2000/svg">
<path d="M43.5001 11.9203C42.0657 12.5391 40.5047 12.9844 38.8969 13.1578C40.5662 12.1661 41.8163 10.5994 42.4126 8.75156C40.8461 9.68339 39.1301 10.3368 37.3407 10.6828C36.5928 9.88325 35.6882 9.24628 34.6833 8.8116C33.6785 8.37691 32.5949 8.15383 31.5 8.15625C27.0704 8.15625 23.5079 11.7469 23.5079 16.1531C23.5079 16.7719 23.5829 17.3906 23.7047 17.9859C17.0719 17.6391 11.1563 14.4703 7.22349 9.61875C6.50689 10.8427 6.13136 12.2364 6.13599 13.6547C6.13599 16.4297 7.54692 18.8766 9.69849 20.3156C8.43054 20.2657 7.19228 19.9172 6.08442 19.2984V19.3969C6.08442 23.2828 8.8313 26.5031 12.4922 27.2438C11.8049 27.4223 11.0977 27.5136 10.3875 27.5156C9.86724 27.5156 9.37505 27.4641 8.87817 27.3938C9.89067 30.5625 12.8391 32.8641 16.35 32.9391C13.6032 35.0906 10.1625 36.3562 6.42661 36.3562C5.7563 36.3562 5.13755 36.3328 4.49536 36.2578C8.03911 38.5313 12.2438 39.8438 16.7719 39.8438C31.4719 39.8438 39.5157 27.6656 39.5157 17.0953C39.5157 16.7484 39.5157 16.4016 39.4922 16.0547C41.0485 14.9156 42.4126 13.5047 43.5001 11.9203Z" fill="#0B62AA"/>
</svg>
